<svg width="60" height="38" viewBox="0 0 60 38" fill="none" xmlns="http://www.w3.org/2000/svg">
<rect x="0.5" y="0.5" width="59" height="37" rx="7.5" fill="white" stroke="#D3D3D3"/>
<path d="M16.5247 19.2244C16.5247 12.2923 21.9422 6.67337 28.6257 6.67337C35.309 6.67337 40.7267 12.2923 40.7267 19.2244C40.7267 26.1563 35.309 31.7755 28.6257 31.7755C21.9422 31.7755 16.5247 26.1563 16.5247 19.2244Z" fill="white"/>
<path d="M35.9447 18.977C35.9391 15.7623 34.0025 13.0219 31.2728 11.9361V26.0177C34.0025 24.9305 35.9391 22.1925 35.9447 18.977ZM26.0659 26.0146V11.937C23.3393 13.0268 21.4049 15.7642 21.3979 18.977C21.4049 22.1892 23.3393 24.9272 26.0659 26.0146ZM28.6708 7.07501C22.3335 7.07748 17.1989 12.404 17.1981 18.977C17.1989 25.5492 22.3335 30.8749 28.6708 30.8758C35.0083 30.8749 40.1444 25.5492 40.146 18.977C40.1444 12.404 35.0083 7.07748 28.6708 7.07501ZM28.6426 31.9999C21.7077 32.0333 16 26.2067 16 19.1126C16 11.3606 21.7077 5.99835 28.6426 6H31.8932C38.7455 5.99835 45 11.3575 45 19.1126C45 26.2034 38.7455 31.9999 31.8932 31.9999H28.6426Z" fill="#264B9A"/>
</svg>
